<svg xmlns="http://www.w3.org/2000/svg" id="icon-Value-2-36" width="36" height="36" viewBox="0 0 36 36">
    <defs>
        <style>
            .cls-3{fill:#fff}.cls-4{fill:#eb0000}
        </style>
    </defs>
    <path id="Rectangle_140099" fill="none" d="M0 0H36V36H0z"/>
    <g id="Group_706" transform="translate(-6 -6)">
        <path id="Path_1557" fill="#f7e5e5" d="M8.144 21.889v8.268l11.087 6.087 11.085-6.087V17.982S28.5 26.389 24 26.389s-4.5 6-4.5 6l-6.489-6z"/>
        <path id="Path_1558" d="M25.912 15.566l-11.086 6.087-2.376-1.327 11.086-6.087z" class="cls-3"/>
        <path id="Path_1559" d="M14.826 21.653v3.8l-2.376-1.305v-3.822z" class="cls-3"/>
        <g id="Group_705">
            <path id="Path_1560" d="M36.375 27.55h-5.414V24.2h3.695a.644.644 0 1 0 0-1.288h-3.695v-2.323H38.4a.645.645 0 1 0 .044-1.289h-7.483v-1.318a.646.646 0 0 0-.335-.565l-6.66-3.657a.644.644 0 0 0-.256-.141l-4.169-2.289a.646.646 0 0 0-.621 0L7.835 17.417a.644.644 0 0 0-.335.565v4.132a.645.645 0 0 0 1.289 0v-3.042l3.017 1.656v3.42a.644.644 0 0 0 .333.564l2.376 1.308a.644.644 0 0 0 .955-.565V22.74l3.116 1.711v10.7l-9.8-5.379v-2.5a.645.645 0 1 0-1.286-.045v2.93a.644.644 0 0 0 .335.565l11.085 6.087a.646.646 0 0 0 .621 0l11.085-6.087a.646.646 0 0 0 .335-.565v-1.318h5.414a.645.645 0 0 0 0-1.289zM9.484 17.982l9.75-5.352 2.948 1.619-9.75 5.351zm4.7 6.383l-1.086-.6v-2.326l1.086.6zm.647-3.45l-1.056-.581 9.746-5.352 1.057.581zm4.4 2.417l-3.064-1.682 9.75-5.353 3.063 1.683zm10.441 6.442l-9.8 5.381v-10.7l9.8-5.379z" class="cls-4"/>
            <path id="Path_1561" d="M8.144 25.339a.645.645 0 1 0-.455-.189.653.653 0 0 0 .455.189z" class="cls-4"/>
            <path id="Path_1562" d="M39.856 27.55h-.924a.645.645 0 0 0 0 1.289h.924a.645.645 0 0 0 0-1.289z" class="cls-4"/>
            <path id="Path_1563" d="M37.234 22.91a.645.645 0 1 0 .456.189.644.644 0 0 0-.456-.189z" class="cls-4"/>
        </g>
    </g>
</svg>
