<svg xmlns="http://www.w3.org/2000/svg" width="130" height="120" viewBox="0 0 130 120">
    <defs>
        <style>
            .cls-3{fill:#fff}.cls-4{fill:#62111a}.cls-5{fill:#fbae17}.cls-6{fill:#ffc40d}.cls-7{fill:#fddd00}.cls-8{fill:#ffe200}.cls-9{fill:#fad549}.cls-10{fill:none;stroke:#fad549;stroke-linecap:round;stroke-linejoin:round;stroke-width:.143px}.cls-11{fill:#b60920}.cls-12{fill:#eb0000}.cls-16{fill:#24334a}
        </style>
    </defs>
    <g id="Group_10297" transform="translate(-415.125 -345.664)">
        <path id="Path_9607" fill="#f4f7fc" d="M48.241 0A48.241 48.241 0 1 1 0 48.241 48.241 48.241 0 0 1 48.241 0z" transform="translate(431.977 345.664)"/>
        <g id="Group_10146" transform="translate(415.125 369.889)">
            <g id="Group_10145">
                <path id="Path_9115" d="M1974.3 1611.7s52.951-5.581 55.163-6.4 7.3-3.579 10.764-3.969c3.593-.4 7.958.2 11.488-3.571s-8.684.813-8.684.813l-5.2-.813s-8.66 1.715-12.289 1.731a20.867 20.867 0 0 0-7.011 1.434l-60.256-11.728 1.286 3.847 5.2 4.753s-2.433.821-8.11.833c-4.652 2.506-28.5 3.694-28.5 3.694l1.759 5.34s12.174 2.138 21-.537 9.878-3.479 13.727-3.2c5.863.429 9.663 7.773 9.663 7.773z" opacity="0.2" transform="translate(-1927.466 -1515.927)"/>
                <g id="Group_10144">
                    <path id="Path_9116" d="M2012.315 1538.41l-49.4 5.192 16.019 16.811 54.661-6.551z" class="cls-3" transform="translate(-1932.101 -1509.632)"/>
                    <path id="Path_9117" d="M2010.611 1540.408l-43.7 4.388 13.448 13.875 49.349-5.742z" class="cls-4" transform="translate(-1932.634 -1509.88)"/>
                    <g id="Group_10141" transform="translate(61.342 21.738)">
                        <path id="Path_9118" d="M2010.212 1544.361c4.651 4.078 6.871 9.223 5.058 11.626.051-.051.1-.1.149-.159 2.007-2.339-.208-7.606-4.95-11.764s-10.212-5.631-12.22-3.291q-.057.067-.109.137c2.117-2.11 7.442-.61 12.072 3.45" class="cls-5" transform="translate(-1998.14 -1531.526)"/>
                        <path id="Path_9119" d="M2018.486 1552.242c-2.008 2.34-7.479.867-12.22-3.291s-6.957-9.424-4.95-11.763 7.478-.866 12.22 3.29 6.957 9.424 4.949 11.764" class="cls-6" transform="translate(-1998.465 -1531.081)"/>
                        <path id="Path_9120" d="M2011.433 1544.057c-.139.16-.122.392.1.9.766 1.708.745 2.484.079 3.255a1.686 1.686 0 0 1-2.173.364l-.49.568-1.289-1.138.5-.58a2.259 2.259 0 0 1-.231-1.9l1.472.224a1.108 1.108 0 0 0 .331 1.183c.4.353.626.3.765.143s.154-.418-.072-.933c-.757-1.691-.762-2.488-.113-3.241a1.69 1.69 0 0 1 2.08-.381l.474-.549 1.289 1.138-.495.574a2.337 2.337 0 0 1 .151 1.818l-1.4-.164a1.044 1.044 0 0 0-.282-1.14c-.368-.325-.55-.3-.689-.141" class="cls-7" transform="translate(-1999.409 -1531.812)"/>
                        <path id="Path_9121" d="M2013.376 1540.773c4.651 4.078 6.871 9.224 5.059 11.627.051-.051.1-.1.148-.159 2.007-2.34-.208-7.606-4.95-11.764s-10.212-5.63-12.22-3.29c-.038.044-.074.09-.109.137 2.117-2.11 7.442-.61 12.072 3.449" class="cls-5" transform="translate(-1998.562 -1531.081)"/>
                        <path id="Path_9122" d="M2001.055 1532.524l-1.633 1.9-.2.238c-2.647 3.085 0 9.788 5.907 14.97 5.808 5.093 12.6 6.818 15.351 3.949l.145-.153 2.04-2.378" class="cls-5" transform="translate(-1998.147 -1530.641)"/>
                        <path id="Path_9123" d="M2022.976 1550.8c-2.648 3.086-9.586 1.387-15.5-3.8s-8.555-11.885-5.907-14.97 9.585-1.386 15.5 3.8 8.555 11.885 5.907 14.97" class="cls-8" transform="translate(-1998.461 -1530.389)"/>
                        <path id="Path_9124" d="M2007.22 1546.913a22.5 22.5 0 0 1-6.015-8.155c-1.131-2.866-1.034-5.283.273-6.806s3.661-1.962 6.627-1.235a22.341 22.341 0 0 1 9.015 5.021c5.936 5.207 8.6 11.993 5.917 15.117-1.307 1.523-3.66 1.962-6.627 1.235a22.342 22.342 0 0 1-9.014-5.021l-.176-.156m9.938-10.866l-.172-.152a22.14 22.14 0 0 0-8.928-4.976c-2.887-.707-5.168-.292-6.422 1.17s-1.338 3.8-.239 6.592a22.451 22.451 0 0 0 6.135 8.23 22.132 22.132 0 0 0 8.928 4.976c2.888.708 5.169.293 6.423-1.169 2.58-3.008.012-9.557-5.724-14.671" class="cls-8" transform="translate(-1998.444 -1530.375)"/>
                        <path id="Path_9125" d="M2021.229 1549.269c-2.007 2.339-7.478.867-12.22-3.291s-6.957-9.424-4.949-11.763 7.479-.866 12.219 3.291 6.957 9.424 4.949 11.764" class="cls-6" transform="translate(-1998.831 -1530.713)"/>
                        <path id="Path_9126" d="M2004.44 1549.99a.105.105 0 0 1-.01-.146l1.765-2.058a.1.1 0 0 1 .146-.01.1.1 0 0 1 .01.146l-1.766 2.057a.1.1 0 0 1-.146.011z" class="cls-9" transform="translate(-1998.976 -1532.528)"/>
                        <path id="Path_9127" d="M2005.5 1551.061a.1.1 0 0 1-.01-.146l1.765-2.058a.1.1 0 0 1 .145-.01.1.1 0 0 1 .01.146l-1.766 2.058a.1.1 0 0 1-.145.01z" class="cls-9" transform="translate(-1999.116 -1532.661)"/>
                        <path id="Path_9128" d="M2006.451 1551.893a.1.1 0 0 1-.01-.146l1.766-2.058a.1.1 0 0 1 .144-.01.1.1 0 0 1 .01.146l-1.766 2.058a.1.1 0 0 1-.145.01z" class="cls-9" transform="translate(-1999.243 -1532.764)"/>
                        <path id="Path_9129" d="M2012.419 1555.836a.1.1 0 0 1-.01-.146l1.766-2.058a.1.1 0 0 1 .146-.01.1.1 0 0 1 .01.146l-1.766 2.057a.1.1 0 0 1-.145.01z" class="cls-9" transform="translate(-2000.04 -1533.252)"/>
                        <path id="Path_9130" d="M2014.384 1556.713a.1.1 0 0 1-.009-.146l1.765-2.057a.1.1 0 0 1 .145-.011.1.1 0 0 1 .009.146l-1.765 2.057a.1.1 0 0 1-.146.01z" class="cls-9" transform="translate(-2000.301 -1533.361)"/>
                        <path id="Path_9131" d="M2015.673 1557.125a.106.106 0 0 1-.01-.146l1.765-2.057a.1.1 0 0 1 .146-.01.1.1 0 0 1 .009.146l-1.765 2.057a.1.1 0 0 1-.146.01z" class="cls-9" transform="translate(-2000.473 -1533.412)"/>
                        <path id="Path_9132" d="M2019.243 1557.767a.1.1 0 0 1-.01-.145l1.766-2.058a.1.1 0 0 1 .145-.01.1.1 0 0 1 .01.146l-1.765 2.057a.1.1 0 0 1-.145.01z" class="cls-9" transform="translate(-2000.949 -1533.492)"/>
                        <path id="Path_9133" d="M2016.119 1537.8c4.652 4.078 6.872 9.224 5.059 11.627.051-.051.1-.1.149-.159 2.008-2.34-.208-7.606-4.95-11.764s-10.212-5.631-12.219-3.291c-.039.044-.074.09-.11.137 2.117-2.11 7.442-.61 12.072 3.449" class="cls-5" transform="translate(-1998.928 -1530.713)"/>
                        <path id="Path_9134" d="M2012.266 1542.578l-1.566 1.8-1.193-1.064 4.446-5.1 2.259 2.015a3.971 3.971 0 0 1 .965 1.233 2.314 2.314 0 0 1 .241 1.277 2.013 2.013 0 0 1-.5 1.118 1.82 1.82 0 0 1-1.614.661 3.562 3.562 0 0 1-1.99-1.006zm.743-.85l1.066.951a1.531 1.531 0 0 0 .893.448.878.878 0 0 0 .738-.338 1.048 1.048 0 0 0 .277-.829 1.371 1.371 0 0 0-.484-.855l-1.094-.976z" class="cls-8" transform="translate(-1999.656 -1531.346)"/>
                    </g>
                    <g id="Group_10142" transform="translate(40.616 35.794)">
                        <path id="Path_9135" d="M1985.965 1558.873c-4.118 4.8-9.313 7.089-11.739 5.219.051.053.1.1.16.153 2.362 2.071 7.68-.215 11.877-5.106s5.685-10.536 3.323-12.607c-.045-.039-.091-.076-.138-.112 2.129 2.184.615 7.678-3.483 12.454" class="cls-5" transform="translate(-1974.226 -1546.419)"/>
                        <path id="Path_9136" d="M1977.9 1567.382c-2.363-2.071-.875-7.715 3.323-12.607s9.515-7.178 11.877-5.106.875 7.716-3.323 12.607-9.515 7.177-11.877 5.105" class="cls-6" transform="translate(-1974.566 -1546.727)"/>
                        <path id="Path_9137" d="M1987.669 1560.028c-.162-.143-.4-.126-.911.1-1.725.789-2.507.769-3.286.082a1.767 1.767 0 0 1-.367-2.243l-.573-.5 1.148-1.33.586.516a2.239 2.239 0 0 1 1.919-.239l-.226 1.519a1.105 1.105 0 0 0-1.2.341c-.355.412-.305.646-.143.788s.421.16.941-.073c1.708-.782 2.512-.786 3.272-.117a1.768 1.768 0 0 1 .384 2.146l.555.489-1.148 1.33-.58-.511a2.31 2.31 0 0 1-1.836.155l.166-1.449a1.041 1.041 0 0 0 1.151-.29c.328-.38.305-.569.143-.712" class="cls-7" transform="translate(-1975.333 -1547.623)"/>
                        <path id="Path_9138" d="M1989.626 1562.1c-4.118 4.8-9.312 7.089-11.739 5.22.052.052.1.1.16.152 2.362 2.071 7.68-.215 11.877-5.105s5.685-10.537 3.323-12.608c-.044-.039-.091-.077-.138-.113 2.13 2.185.615 7.678-3.483 12.454" class="cls-5" transform="translate(-1974.714 -1546.819)"/>
                        <path id="Path_9139" d="M1997.044 1549.426l-1.921-1.684-.24-.21c-3.115-2.733-9.883 0-15.115 6.094-5.142 5.991-6.885 13-3.988 15.838l.154.149 2.4 2.105" class="cls-5" transform="translate(-1974.247 -1546.425)"/>
                        <path id="Path_9140" d="M1978.7 1572.015c-3.116-2.731-1.4-9.889 3.833-15.987s12-8.825 15.115-6.094 1.4 9.889-3.833 15.986-12 8.826-15.115 6.095" class="cls-8" transform="translate(-1974.616 -1546.723)"/>
                        <path id="Path_9141" d="M1982.6 1555.761a22.761 22.761 0 0 1 8.235-6.205c2.893-1.166 5.333-1.066 6.872.283s1.981 3.776 1.247 6.836a23.22 23.22 0 0 1-5.07 9.3c-5.258 6.124-12.109 8.871-15.264 6.105-1.537-1.349-1.98-3.777-1.247-6.837a23.223 23.223 0 0 1 5.07-9.3l.157-.182m10.971 10.253l.155-.179a23 23 0 0 0 5.024-9.211c.714-2.978.295-5.332-1.18-6.626s-3.84-1.381-6.656-.245a22.688 22.688 0 0 0-8.311 6.328 23 23 0 0 0-5.024 9.211c-.714 2.979-.295 5.332 1.18 6.626 3.037 2.662 9.65.013 14.813-5.9" class="cls-8" transform="translate(-1974.599 -1546.708)"/>
                        <path id="Path_9142" d="M1980.933 1570.182c-2.363-2.071-.875-7.715 3.323-12.607s9.515-7.177 11.878-5.106.875 7.715-3.323 12.607-9.515 7.178-11.877 5.107" class="cls-6" transform="translate(-1974.971 -1547.074)"/>
                        <path id="Path_9143" d="M1982.377 1552.849a.1.1 0 0 1 .148-.01l2.077 1.821a.106.106 0 0 1 .01.15.1.1 0 0 1-.148.01l-2.077-1.821a.107.107 0 0 1-.011-.15z" class="cls-9" transform="translate(-1975.309 -1547.211)"/>
                        <path id="Path_9144" d="M1981.284 1553.928a.1.1 0 0 1 .148-.01l2.077 1.821a.106.106 0 0 1 .01.15.1.1 0 0 1-.148.01l-2.077-1.821a.108.108 0 0 1-.01-.15z" class="cls-9" transform="translate(-1975.163 -1547.345)"/>
                        <path id="Path_9145" d="M1980.435 1554.9a.1.1 0 0 1 .147-.01l2.078 1.821a.106.106 0 0 1 .01.15.1.1 0 0 1-.148.01l-2.078-1.821a.108.108 0 0 1-.01-.15z" class="cls-9" transform="translate(-1975.05 -1547.466)"/>
                        <path id="Path_9146" d="M1976.411 1560.992a.1.1 0 0 1 .147-.01l2.077 1.821a.107.107 0 0 1 .01.15.1.1 0 0 1-.148.01l-2.077-1.821a.107.107 0 0 1-.01-.15z" class="cls-9" transform="translate(-1974.514 -1548.221)"/>
                        <path id="Path_9147" d="M1975.515 1563a.1.1 0 0 1 .147-.011l2.078 1.822a.107.107 0 0 1 .01.15.1.1 0 0 1-.148.01l-2.077-1.822a.107.107 0 0 1-.011-.15z" class="cls-9" transform="translate(-1974.394 -1548.469)"/>
                        <path id="Path_9148" d="M1975.094 1564.314a.1.1 0 0 1 .148-.01l2.077 1.821a.108.108 0 0 1 .01.15.1.1 0 0 1-.147.01l-2.078-1.821a.107.107 0 0 1-.01-.15z" class="cls-9" transform="translate(-1974.338 -1548.632)"/>
                        <path id="Path_9149" d="M1974.439 1567.957a.1.1 0 0 1 .147-.011l2.077 1.822a.107.107 0 0 1 .01.15.1.1 0 0 1-.147.01l-2.077-1.821a.108.108 0 0 1-.011-.15z" class="cls-9" transform="translate(-1974.251 -1549.084)"/>
                        <path id="Path_9150" d="M1992.661 1564.9c-4.118 4.8-9.313 7.089-11.739 5.22.051.052.1.1.159.152 2.363 2.072 7.681-.215 11.878-5.107s5.685-10.536 3.323-12.606c-.045-.04-.091-.077-.139-.113 2.13 2.185.616 7.678-3.482 12.454" class="cls-5" transform="translate(-1975.119 -1547.166)"/>
                        <path id="Path_9151" d="M1989.336 1560.867l-1.812-1.615 1.073-1.232 5.145 4.587-2.034 2.331a4.032 4.032 0 0 1-1.245 1 2.3 2.3 0 0 1-1.288.249 2.015 2.015 0 0 1-1.129-.518 1.9 1.9 0 0 1-.667-1.663 3.711 3.711 0 0 1 1.016-2.055zm.859.766l-.96 1.1a1.59 1.59 0 0 0-.452.922.914.914 0 0 0 .341.76 1.048 1.048 0 0 0 .837.287 1.379 1.379 0 0 0 .863-.5l.985-1.129z" class="cls-8" transform="translate(-1975.978 -1547.857)"/>
                    </g>
                    <g id="Group_10143" transform="translate(45.08)">
                        <path id="Path_9178" d="M12.942-.006c7.137-.015 12.912 5.04 12.9 11.292S20.03 22.618 12.893 22.633-.018 17.593 0 11.342 5.8.01 12.942-.006z" class="cls-5" transform="rotate(-11.732 30.83 2.11)"/>
                        <path id="Path_9179" d="M12.941-.006c7.137-.015 12.912 4.917 12.9 11.016s-5.81 11.057-12.947 11.072S-.018 17.166 0 11.066 5.8.01 12.941-.006z" class="cls-8" transform="rotate(-11.76 25.666 2.655)"/>
                        <path id="Path_9180" d="M10.41 0c5.741-.017 10.39 3.95 10.376 8.857s-4.673 8.894-10.414 8.906S-.014 13.808 0 8.9 4.669.008 10.41 0z" class="cls-6" transform="rotate(-11.732 34.87 -10.744)"/>
                        <path id="Path_9181" d="M10.41 0c5.741-.017 10.39 3.95 10.376 8.857s-4.673 8.894-10.414 8.906S-.014 13.808 0 8.9 4.669.008 10.41 0z" class="cls-6" transform="rotate(-11.732 37.147 -10.972)"/>
                        <path id="Path_9152" d="M1990.5 1511.4c5.528-1.161 10.8 1.668 11.91 6.338-.013-.076-.028-.153-.043-.229-.987-4.806-6.342-7.746-11.961-6.567s-9.373 6.032-8.385 10.838c.016.077.032.152.051.229-.826-4.733 2.898-9.45 8.428-10.609z" class="cls-5" transform="translate(-1977.3 -1506.195)"/>
                        <path id="Path_9153" d="M1992.68 1521.932l.588 2.863-1.9.4-1.669-8.127 3.6-.756a4.755 4.755 0 0 1 1.9-.05 2.764 2.764 0 0 1 1.411.7 2.461 2.461 0 0 1 .714 1.315 2.275 2.275 0 0 1-.543 2.079 4.347 4.347 0 0 1-2.431 1.229zm-.278-1.356l1.7-.358a1.874 1.874 0 0 0 1.088-.553 1.1 1.1 0 0 0 .213-.977 1.274 1.274 0 0 0-.6-.881 1.638 1.638 0 0 0-1.182-.148l-1.746.366z" class="cls-8" transform="translate(-1978.344 -1506.878)"/>
                        <path id="Line_100" d="M0 0L0.256 1.244" class="cls-10" transform="translate(17.147 24.421)"/>
                        <path id="Line_101" d="M0 0L0.232 1.131" class="cls-10" transform="translate(7.714 23.313)"/>
                        <path id="Line_102" d="M0 0L0.232 1.131" class="cls-10" transform="translate(7.18 22.977)"/>
                        <path id="Line_103" d="M0 0L0.202 0.981" class="cls-10" transform="translate(3.962 20.025)"/>
                        <path id="Line_104" d="M0 0L0.256 1.244" class="cls-10" transform="translate(16.277 24.604)"/>
                        <path id="Line_105" d="M0 0L0.256 1.244" class="cls-10" transform="translate(17.93 24.257)"/>
                        <path id="Line_106" d="M0 0L0.256 1.244" class="cls-10" transform="translate(22.679 21.963)"/>
                        <path id="Line_107" d="M0 0L0.256 1.244" class="cls-10" transform="translate(23.615 21.245)"/>
                        <path id="Line_108" d="M0 0L0.192 0.935" class="cls-10" transform="translate(26.88 17.178)"/>
                    </g>
                    <path id="Path_9154" d="M2057.075 1599.561s8.791-3.722 10.964-9.318l6.617-.5s-3.648 8.856-10.028 10.352z" class="cls-11" transform="translate(-1944.656 -1515.994)"/>
                    <path id="Path_9155" d="M2063.025 1599.724s-6.455.743-9.748-.681-8.318-8.394-8.23-12.289c0 0 6.264.54 7.239 1.035 3.703 1.88 6.07 10.528 10.739 11.935z" class="cls-12" transform="translate(-1943.053 -1515.623)"/>
                    <path id="Path_9156" d="M2042.723 1600.259s4.159-13.847 8.807-12.6c0 0-5.728-3.023-8.375-1.6s-3.784 8.971-3.784 8.971z" class="cls-11" transform="translate(-1942.295 -1515.489)"/>
                    <path id="Path_9157" d="M2036.056 1601.04l-54.661 6.551V1562.6l54.661-6.551z" class="cls-3" transform="translate(-1934.565 -1511.818)"/>
                    <path id="Path_9158" fill="#e0e0e0" d="M1962.912 1583.643l16.019 22.5v-44.993l-16.019-16.811z" transform="translate(-1932.101 -1510.366)"/>
                    <path id="Path_9159" d="M1965.372 1593.1a9.432 9.432 0 0 1 2.87 4.173 11.25 11.25 0 0 0 3.75 4.7 10.441 10.441 0 0 0-1.771-6.183c-1.321-1.75-4.849-2.69-4.849-2.69z" class="cls-11" transform="translate(-1932.429 -1516.41)"/>
                    <path id="Path_9160" d="M1966.924 1601.639s.174-7.163-4.228-4.438-5.808 9.08-17.365 10.44c-9.9 1.165-15.53.173-15.53.173l-2.441-7.413s11.092 1.2 16.4.521c7.215-.927 9.013-9.228 14.408-10.463 4.856-1.112 9.452 7.471 8.756 11.18z" class="cls-12" transform="translate(-1927.361 -1516.07)"/>
                    <path id="Path_9161" fill="#f0f0f0" d="M1974.639 1553.617l-1.991.724 7.581 7.957 43.454-5.208v-1.732l-42.558 4.952z" transform="translate(-1933.399 -1511.516)"/>
                </g>
            </g>
            <g id="Group_54" transform="translate(58.714 54.263)">
                <path id="Rectangle_140069" fill="none" d="M1995.107 1571.283l32.56-3.783v27.1l-32.56 3.783z" transform="translate(-1995.107 -1567.501)"/>
                <g id="Logo-Mitraruma" transform="translate(1.277 4.218)">
                    <g id="Group_33">
                        <g id="Group_32">
                            <g id="Group_31">
                                <g id="Group_30">
                                    <path id="Path_982" d="M2019.9 1578.8l-7.225-6.49-3.6 4.092 3.613 3.244z" class="cls-11" transform="translate(-1998.246 -1572.315)"/>
                                    <path id="Path_983" d="M2011.009 1572.315l-7.218.846-7.21 8.183.012 11.571 7.222 2.823-.016-15.239 3.6-4.091-3.612-3.246z" class="cls-11" transform="translate(-1996.581 -1572.315)"/>
                                    <path id="Path_984" d="M2012.118 1572.315l-7.218.846 3.612 3.245z" class="cls-4" transform="translate(-1997.69 -1572.315)"/>
                                </g>
                            </g>
                        </g>
                    </g>
                    <g id="Group_34" transform="translate(10.842 8.901)">
                        <path id="Path_985" d="M2013.116 1583.881l-.894 3.444-1.07-3.848-1.216.141a.985.985 0 0 0-.845.959l.005 5.5 1.326-.154-.005-4.47 1.359 4.312.9-.1 1.348-4.629.005 4.47 1.325-.154-.006-6.358-1.416.167a.988.988 0 0 0-.816.72z" class="cls-11" transform="translate(-2009.091 -1582.539)"/>
                        <path id="Rectangle_140065" d="M2016.97 1584.754l1.326-.155.005 4.721-1.326.156z" class="cls-11" transform="translate(-2010.141 -1582.738)"/>
                        <path id="Path_986" d="M2016.969 1583.746v.3l1.325-.154v-1.158l-.478.056a.985.985 0 0 0-.847.956z" class="cls-11" transform="translate(-2010.141 -1582.507)"/>
                        <path id="Path_987" d="M2020.487 1587.518v-2.538l.757-.088v-.867l-.757.088v-1.639l-.478.056a.986.986 0 0 0-.846.959l.005 4.639a.743.743 0 0 0 .759.767v.005l1.337-.155v-.964l-.422.049a.308.308 0 0 1-.355-.312z" class="cls-11" transform="translate(-2010.433 -1582.475)"/>
                        <path id="Path_988" d="M2022.223 1585.523v3.251l1.325-.153v-3.117a.845.845 0 0 1 .725-.823l.79-.092v-1.347l-.923.107a2.236 2.236 0 0 0-1.917 2.174z" class="cls-11" transform="translate(-2010.842 -1582.57)"/>
                        <path id="Path_989" d="M2028.31 1582.869l-.569.065a1.878 1.878 0 0 0-1.609 1.827v.1l1.325-.154v-.1a.334.334 0 0 1 .285-.323l.6-.07a.221.221 0 0 1 .243.154.291.291 0 0 1-.166.339 3.732 3.732 0 0 1-.43.164l-.811.249a1.728 1.728 0 0 0-1.235 1.63v.1a1.3 1.3 0 0 0 1.481 1.33l.674-.078a2.053 2.053 0 0 0 1.291-.695 2.086 2.086 0 0 0 .534-1.376v-1.708a1.419 1.419 0 0 0-1.613-1.454zm.287 3.135v.152a.864.864 0 0 1-.741.825l-.1.011a.417.417 0 0 1-.483-.385.524.524 0 0 1 .142-.391.538.538 0 0 1 .338-.171l.123-.015a1.874 1.874 0 0 0 .724-.245z" class="cls-11" transform="translate(-2011.338 -1582.523)"/>
                    </g>
                    <g id="Group_35" transform="translate(10.855 15.559)">
                        <path id="Path_990" d="M2009.106 1594.339v3.252l1.326-.154v-3.117a.846.846 0 0 1 .725-.823l.791-.092v-1.347l-.924.107a2.238 2.238 0 0 0-1.918 2.174z" class="cls-16" transform="translate(-2009.106 -1590.321)"/>
                        <path id="Path_991" d="M2015.7 1592.462v2.293a.793.793 0 0 1-.651.778.592.592 0 0 1-.478-.139.6.6 0 0 1-.2-.458v-3.18l-.478.056a.986.986 0 0 0-.845.959v2.32a1.745 1.745 0 0 0 1.967 1.806 2.307 2.307 0 0 0 2.013-2.222v-3.232l-.479.056a.984.984 0 0 0-.846.96z" class="cls-16" transform="translate(-2009.63 -1590.245)"/>
                        <path id="Path_992" d="M2022.957 1590.743a2.215 2.215 0 0 0-1.346.673 1.8 1.8 0 0 0-1.522-.328 2.351 2.351 0 0 0-1.794 2.261v3.143l1.325-.154v-3.154a.794.794 0 0 1 .652-.777.589.589 0 0 1 .478.137.6.6 0 0 1 .2.458v3.18l1.325-.154v-3.154a.794.794 0 0 1 .651-.778.592.592 0 0 1 .495.153.633.633 0 0 1 .183.466v3.157l1.326-.154v-3.138a1.773 1.773 0 0 0-1.973-1.837z" class="cls-16" transform="translate(-2010.331 -1590.157)"/>
                        <path id="Path_993" d="M2028.976 1590.085l-.568.065a1.877 1.877 0 0 0-1.609 1.827v.1l1.326-.153v-.1a.332.332 0 0 1 .284-.323l.6-.07a.219.219 0 0 1 .242.154.29.29 0 0 1-.164.339 4 4 0 0 1-.43.163l-.812.249a1.728 1.728 0 0 0-1.234 1.63v.1a1.3 1.3 0 0 0 1.481 1.331l.674-.078a2.051 2.051 0 0 0 1.291-.7 2.081 2.081 0 0 0 .533-1.375v-1.708a1.418 1.418 0 0 0-1.614-1.451zm.288 3.135v.152a.864.864 0 0 1-.741.824l-.1.011a.418.418 0 0 1-.484-.385.53.53 0 0 1 .143-.391.542.542 0 0 1 .337-.171l.124-.014a1.876 1.876 0 0 0 .723-.245z" class="cls-16" transform="translate(-2011.44 -1590.075)"/>
                    </g>
                </g>
            </g>
        </g>
        <g id="Group_10151" transform="translate(501.236 365.757)">
            <g id="Group_10147" transform="translate(8.076 .485)">
                <path id="Path_9162" d="M2030.875 1505.827a1.365 1.365 0 0 1 0-1.916l2.774-2.805a1.331 1.331 0 0 1 1.9 0 1.365 1.365 0 0 1 0 1.916l-2.775 2.805a1.331 1.331 0 0 1-1.899 0z" class="cls-12" transform="translate(-2030.482 -1500.709)"/>
            </g>
            <g id="Group_10148" transform="translate(8.556 8.649)">
                <path id="Path_9163" d="M2034.2 1515.145l-2.774-2.8a1.365 1.365 0 0 1 0-1.915 1.33 1.33 0 0 1 1.9 0l2.774 2.8a1.366 1.366 0 0 1 0 1.916 1.33 1.33 0 0 1-1.9-.001z" class="cls-12" transform="translate(-2031.036 -1510.028)"/>
            </g>
            <g id="Group_10149" transform="translate(.48 8.163)">
                <path id="Path_9164" d="M2022.111 1514.591a1.365 1.365 0 0 1 0-1.916l2.774-2.8a1.33 1.33 0 0 1 1.9 0 1.364 1.364 0 0 1 0 1.915l-2.775 2.805a1.33 1.33 0 0 1-1.899-.004z" class="cls-12" transform="translate(-2021.718 -1509.474)"/>
            </g>
            <g id="Group_10150">
                <path id="Path_9165" d="M2024.331 1505.272l-2.774-2.8a1.365 1.365 0 0 1 0-1.916 1.33 1.33 0 0 1 1.895 0l2.775 2.805a1.364 1.364 0 0 1 0 1.915 1.33 1.33 0 0 1-1.896-.004z" class="cls-12" transform="translate(-2021.164 -1500.156)"/>
            </g>
        </g>
        <g id="Group_10156" transform="translate(473.121 357.121)">
            <g id="Group_10152" transform="translate(3.252 .195)">
                <path id="Path_9166" d="M1994.023 1493.27a.551.551 0 0 1 0-.772l1.117-1.129a.537.537 0 0 1 .764 0 .55.55 0 0 1 0 .772l-1.117 1.129a.536.536 0 0 1-.764 0z" class="cls-12" transform="translate(-1993.865 -1491.209)"/>
            </g>
            <g id="Group_10153" transform="translate(3.445 3.482)">
                <path id="Path_9167" d="M1995.363 1497.021l-1.117-1.129a.55.55 0 0 1 0-.772.536.536 0 0 1 .763 0l1.117 1.13a.55.55 0 0 1 0 .772.536.536 0 0 1-.763-.001z" class="cls-12" transform="translate(-1994.088 -1494.961)"/>
            </g>
            <g id="Group_10154" transform="translate(.193 3.287)">
                <path id="Path_9168" d="M1990.495 1496.8a.547.547 0 0 1 0-.771l1.117-1.129a.536.536 0 0 1 .763 0 .55.55 0 0 1 0 .771l-1.117 1.129a.533.533 0 0 1-.763 0z" class="cls-12" transform="translate(-1990.336 -1494.738)"/>
            </g>
            <g id="Group_10155">
                <path id="Path_9169" d="M1991.388 1493.047l-1.117-1.129a.55.55 0 0 1 0-.772.536.536 0 0 1 .763 0l1.117 1.129a.551.551 0 0 1 0 .772.536.536 0 0 1-.763 0z" class="cls-12" transform="translate(-1990.113 -1490.986)"/>
            </g>
        </g>
        <g id="Group_10161" transform="translate(502.824 388.439)">
            <g id="Group_10157" transform="translate(3.251 .195)">
                <path id="Path_9170" d="M2032.461 1529.019a.549.549 0 0 1 0-.772l1.117-1.129a.536.536 0 0 1 .763 0 .551.551 0 0 1 0 .772l-1.117 1.129a.535.535 0 0 1-.763 0z" class="cls-12" transform="translate(-2032.303 -1526.958)"/>
            </g>
            <g id="Group_10158" transform="translate(3.445 3.482)">
                <path id="Path_9171" d="M2033.8 1532.771l-1.117-1.129a.55.55 0 0 1 0-.772.536.536 0 0 1 .763 0l1.117 1.129a.551.551 0 0 1 0 .772.535.535 0 0 1-.763 0z" class="cls-12" transform="translate(-2032.527 -1530.71)"/>
            </g>
            <g id="Group_10159" transform="translate(.193 3.287)">
                <path id="Path_9172" d="M2028.933 1532.547a.55.55 0 0 1 0-.772l1.117-1.129a.536.536 0 0 1 .763 0 .551.551 0 0 1 0 .772l-1.117 1.129a.535.535 0 0 1-.763 0z" class="cls-12" transform="translate(-2028.775 -1530.487)"/>
            </g>
            <g id="Group_10160">
                <path id="Path_9173" d="M2029.827 1528.8l-1.117-1.129a.55.55 0 0 1 0-.772.535.535 0 0 1 .762 0l1.117 1.129a.551.551 0 0 1 0 .772.536.536 0 0 1-.762 0z" class="cls-12" transform="translate(-2028.552 -1526.735)"/>
            </g>
        </g>
        <g id="Group_10166" transform="translate(449.272 369.243)">
            <g id="Group_10162" transform="translate(5.664 .34)">
                <path id="Path_9174" d="M1967.321 1515.682a.957.957 0 0 1 0-1.343l1.946-1.967a.933.933 0 0 1 1.33 0 .958.958 0 0 1 0 1.343l-1.946 1.967a.933.933 0 0 1-1.33 0z" class="cls-12" transform="translate(-1967.046 -1512.094)"/>
            </g>
            <g id="Group_10163" transform="translate(6 6.065)">
                <path id="Path_9175" d="M1969.655 1522.217l-1.946-1.967a.956.956 0 0 1 0-1.343.931.931 0 0 1 1.329 0l1.946 1.967a.956.956 0 0 1 0 1.343.931.931 0 0 1-1.329 0z" class="cls-12" transform="translate(-1967.434 -1518.629)"/>
            </g>
            <g id="Group_10164" transform="translate(.337 5.725)">
                <path id="Path_9176" d="M1961.175 1521.829a.958.958 0 0 1 0-1.344l1.946-1.967a.934.934 0 0 1 1.329 0 .958.958 0 0 1 0 1.344l-1.946 1.967a.933.933 0 0 1-1.329 0z" class="cls-12" transform="translate(-1960.9 -1518.241)"/>
            </g>
            <g id="Group_10165">
                <path id="Path_9177" d="M1962.732 1515.295l-1.947-1.967a.959.959 0 0 1 0-1.344.934.934 0 0 1 1.33 0l1.946 1.967a.958.958 0 0 1 0 1.344.933.933 0 0 1-1.329 0z" class="cls-12" transform="translate(-1960.511 -1511.706)"/>
            </g>
        </g>
        <ellipse id="Ellipse_85" cx="1.236" cy="1.25" class="cls-12" rx="1.236" ry="1.25" transform="translate(488.707 372.277)"/>
        <ellipse id="Ellipse_86" cx="2.556" cy="2.584" class="cls-12" rx="2.556" ry="2.584" transform="translate(454.184 394.142)"/>
    </g>
</svg>
