<svg xmlns="http://www.w3.org/2000/svg" width="80" height="80" viewBox="0 0 80 80">
    <defs>
        <style>
            .cls-1{fill:#cdf0d8}.cls-2{fill:#07b53b}
        </style>
    </defs>
    <g id="Group_9825" transform="translate(1034 -1081)">
        <g id="Group_9831" transform="translate(-1029 1088.722)">
            <path id="Path_8349" d="M-966.512 1123.417a28.567 28.567 0 0 1-28.032 23.084 28.559 28.559 0 0 1-28.559-28.559 28.509 28.509 0 0 1 10.99-22.516 30.61 30.61 0 0 0-14.541 26.067 30.63 30.63 0 0 0 30.63 30.63 30.63 30.63 0 0 0 30.568-28.706z" class="cls-1" transform="translate(1029 -1088.723)"/>
            <path id="Path_8350" d="M-963.026 1100.925l-31.962 31.37-18.053-18.052s-5.623 2.367-4.143 4.143 22.788 21.9 22.788 21.9l35.513-35.809z" class="cls-1" transform="translate(1029 -1088.722)"/>
            <g id="Group_9830">
                <g id="Group_9828" transform="translate(10.009 4.078)">
                    <path id="Path_8351" d="M-994.728 1142.337l-24.263-24.262 11.808-11.81 12.455 12.456 25.921-25.921 11.807 11.809zm-20.077-24.262l20.077 20.077 33.543-33.543-7.622-7.623-25.921 25.92-12.455-12.455z" class="cls-2" transform="translate(1018.991 -1092.8)"/>
                </g>
                <g id="Group_9829">
                    <path id="Path_8352" d="M-996.243 1154.235a32.793 32.793 0 0 1-32.757-32.757 32.793 32.793 0 0 1 32.757-32.756 32.514 32.514 0 0 1 18.6 5.793l-1.685 2.433a29.567 29.567 0 0 0-16.914-5.267 29.831 29.831 0 0 0-29.8 29.8 29.831 29.831 0 0 0 29.8 29.8 29.831 29.831 0 0 0 29.8-29.8 29.013 29.013 0 0 0-.25-3.854l2.933-.395a32.079 32.079 0 0 1 .276 4.249 32.793 32.793 0 0 1-32.76 32.754z" class="cls-2" transform="translate(1029 -1088.722)"/>
                </g>
            </g>
        </g>
        <path id="Rectangle_144990" fill="none" d="M0 0H80V80H0z" transform="translate(-1034 1081)"/>
    </g>
</svg>
