<svg xmlns="http://www.w3.org/2000/svg" id="icon-Value-1-36" width="36" height="36" viewBox="0 0 36 36">
    <defs>
        <style>
            .cls-2{fill:#f7e5e5}.cls-3{fill:#eb0000}
        </style>
    </defs>
    <path id="Rectangle_140104" fill="none" d="M0 0H36V36H0z"/>
    <g id="Group_713" transform="translate(4.5 2.249)">
        <path id="Path_1591" d="M26.067 17.1l-5.675-6.507a2.1 2.1 0 0 0-2.963-.2 1.964 1.964 0 0 0-.2.2L11.548 17.1a2.144 2.144 0 0 0-.525 1.413v16.512a4.176 4.176 0 0 0 4.153 4.2h7.264a4.178 4.178 0 0 0 4.154-4.2V18.51a2.149 2.149 0 0 0-.527-1.41zm-7.26 2.175a2.1 2.1 0 1 1 2.077-2.123v.023a2.09 2.09 0 0 1-2.077 2.1z" class="cls-2" transform="translate(-10.5 -8.249)"/>
        <path id="Path_1592" d="M29.909 17.318l-.562-.982a9.916 9.916 0 0 1-2.752 2.527v1.224c.036-.021.075-.039.107-.059a11.581 11.581 0 0 0 3.207-2.71z" class="cls-2" transform="translate(-10.5 -8.249)"/>
        <path id="Path_1593" d="M26.595 18.225h-.026a2.067 2.067 0 0 1 .026.283v16.517a4.2 4.2 0 0 1-1.655 3.35 4.1 4.1 0 0 0 3.667-.238l.681-.4z" class="cls-2" transform="translate(-10.5 -8.249)"/>
        <path id="Path_1594" d="M20.79 19.736a2.49 2.49 0 0 1-1.292-.587 1.9 1.9 0 0 1-1.229.048c.023.047.037.1.063.143a3.1 3.1 0 0 0 2.28 1.431 5.733 5.733 0 0 0 .987.082 8.589 8.589 0 0 0 2.367-.367 10.445 10.445 0 0 0-.375-.987 6.54 6.54 0 0 1-2.801.237z" class="cls-2" transform="translate(-10.5 -8.249)"/>
        <path id="Path_1595" d="M26.565 18.157c-.125.079-.25.158-.38.235-.169.1-.34.191-.51.28a10.771 10.771 0 0 1-2.085.828 10.38 10.38 0 0 1 .375.987 11.877 11.877 0 0 0 2.181-.88q.225-.114.45-.245v-.852a2.205 2.205 0 0 0-.031-.353z" class="cls-2" transform="translate(-10.5 -8.249)"/>
        <g id="Group_712">
            <path id="Path_1596" d="M18.807 26.625a1.044 1.044 0 0 1 1.039 1.05.519.519 0 1 0 1.038 0 2.1 2.1 0 0 0-1.558-2.025v-.6a.519.519 0 0 0-1.038 0v.6a2.1 2.1 0 0 0 .519 4.125 1.05 1.05 0 1 1-1.038 1.062v-.012a.52.52 0 1 0-1.039-.039v.039a2.1 2.1 0 0 0 1.558 2.025v.6a.519.519 0 1 0 1.038 0v-.6a2.1 2.1 0 0 0-.519-4.125 1.05 1.05 0 0 1 0-2.1z" class="cls-3" transform="translate(-10.5 -8.249)"/>
            <path id="Path_1597" d="M20.365 21.375h-3.116a.525.525 0 0 0 0 1.05h3.116a.525.525 0 0 0 0-1.05z" class="cls-3" transform="translate(-10.5 -8.249)"/>
            <path id="Path_1598" d="M20.365 36.075h-3.116a.525.525 0 1 0 0 1.05h3.116a.525.525 0 1 0 0-1.05z" class="cls-3" transform="translate(-10.5 -8.249)"/>
            <path id="Path_1599" d="M36.872 28.463L29.25 15.115a8.849 8.849 0 0 0 1.236-1.558 3.7 3.7 0 0 0 .435-3.788c-1.164-2.04-4.842-2.025-8.372.037a12.751 12.751 0 0 0-1.35.921l-.419-.481a2.61 2.61 0 0 0-3.68-.263 2.512 2.512 0 0 0-.263.263l-5.675 6.5a2.672 2.672 0 0 0-.662 1.764v16.515a4.7 4.7 0 0 0 4.673 4.725h7.267a4.613 4.613 0 0 0 2.58-.787 4.557 4.557 0 0 0 3.845-.368l6.3-3.675a4.755 4.755 0 0 0 1.707-6.457zM26.183 16.172c-.052.03-.1.056-.155.085l-3.225-3.7 4.134 1.405a1.592 1.592 0 0 1 .871.722l.133.232a11.578 11.578 0 0 1-1.758 1.256zm-3.114-5.456c2.924-1.708 6.109-1.9 6.952-.42a2.723 2.723 0 0 1-.418 2.712 7.674 7.674 0 0 1-.893 1.167v-.009a2.646 2.646 0 0 0-1.442-1.193l-5.036-1.715q.406-.286.842-.54zM15.173 38.7a3.66 3.66 0 0 1-3.635-3.675V18.51a1.621 1.621 0 0 1 .4-1.066l5.676-6.5a1.575 1.575 0 0 1 2.221-.167 1.463 1.463 0 0 1 .167.167l5.061 5.8a8.513 8.513 0 0 1-3.7.831 2.671 2.671 0 0 0 .04-.4 2.543 2.543 0 0 0-.842-1.994 2.482 2.482 0 0 0-2.061-.6h-.015a2.625 2.625 0 0 0-.545 5.068 2.575 2.575 0 0 0 3.041-1.055 6.035 6.035 0 0 0 .615.034 9.921 9.921 0 0 0 4.17-1.062 1.622 1.622 0 0 1 .307.943v16.516A3.659 3.659 0 0 1 22.44 38.7zm5.167-21.293a1.893 1.893 0 0 1-1.111-.813 1.707 1.707 0 0 1-.2-.969 1.5 1.5 0 0 1 1.036.6 1.534 1.534 0 0 1 .275 1.182zM18 15.835a2.68 2.68 0 0 0 .328 1.284 2.822 2.822 0 0 0 1.512 1.225 1.541 1.541 0 0 1-1.611.3 1.576 1.576 0 0 1-.23-2.8zm18.335 15.942a3.646 3.646 0 0 1-1.692 2.232l-6.3 3.675a3.562 3.562 0 0 1-2.389.443 4.726 4.726 0 0 0 1.155-3.1V18.51a2.672 2.672 0 0 0-.415-1.425 12.7 12.7 0 0 0 1.761-1.242l7.508 13.144a3.681 3.681 0 0 1 .372 2.79z" class="cls-3" transform="translate(-10.5 -8.249)"/>
            <path id="Path_1600" d="M28.672 29.674a.52.52 0 0 1-.5-.389.526.526 0 0 1 .241-.591l3.6-2.1a.518.518 0 0 1 .522 0 .527.527 0 0 1 0 .912l-3.6 2.1a.523.523 0 0 1-.263.068z" class="cls-3" transform="translate(-10.5 -8.249)"/>
            <path id="Path_1601" d="M29.331 32.925a.526.526 0 0 1-.26-.979l4.5-2.625a.515.515 0 0 1 .706.187v.005a.525.525 0 0 1-.19.717l-4.5 2.625a.511.511 0 0 1-.256.07z" class="cls-3" transform="translate(-10.5 -8.249)"/>
            <path id="Path_1602" d="M29.173 26.351a.526.526 0 0 1-.26-.98l1.8-1.05a.514.514 0 0 1 .522 0 .525.525 0 0 1 .194.716.512.512 0 0 1-.194.195l-1.8 1.05a.514.514 0 0 1-.262.069z" class="cls-3" transform="translate(-10.5 -8.249)"/>
        </g>
    </g>
    <path id="Path_1607" d="M39.938 8.063L42 9l-2.062.938L39 12l-.937-2.062L36 9l2.063-.937L39 6z" class="cls-3" transform="translate(-6 -6)"/>
    <path id="Path_1608" d="M36.938 15.563L39 16.5l-2.062.938L36 19.5l-.937-2.062L33 16.5l2.063-.937L36 13.5z" class="cls-3" transform="translate(-6 -6)"/>
</svg>
