<svg xmlns="http://www.w3.org/2000/svg" id="icon-Value-3-36" width="36" height="36" viewBox="0 0 36 36">
    <defs>
        <style>
            .cls-1{fill:#f7e5e5}.cls-2{fill:#eb0000}
        </style>
    </defs>
    <path id="Path_1564" d="M26.759 40.575h13.2a1.2 1.2 0 1 1 0 2.4h-13.2a1.2 1.2 0 1 1 0-2.4z" class="cls-1" transform="translate(-5.76 -13.599)"/>
    <path id="Path_1565" d="M8.76 48.975h-1.2l1.2-6h2.4z" class="cls-1" transform="translate(-5.76 -13.599)"/>
    <path id="Path_1566" d="M18.359 48.975h1.2l-1.2-6h-2.4z" class="cls-1" transform="translate(-5.76 -13.599)"/>
    <path id="Path_1567" d="M15.36 38.775a2.4 2.4 0 0 0-2.4-2.4h-2.4a2.4 2.4 0 0 1-2.4-2.4v-4.2a1.8 1.8 0 0 0-1.8 1.8v9a2.4 2.4 0 0 0 2.4 2.4h10.2a1.8 1.8 0 0 0 1.8-1.8h-3a2.4 2.4 0 0 1-2.4-2.4z" class="cls-1" transform="translate(-5.76 -13.599)"/>
    <path id="Path_1568" d="M20.159 21.975v-4.2h-1.8v10.8h10.8v-1.8h-4.2a4.8 4.8 0 0 1-4.8-4.8z" class="cls-1" transform="translate(-5.76 -13.599)"/>
    <path id="Path_1569" d="M25.2 25.329a2.046 2.046 0 0 1-2.892 0 2.056 2.056 0 0 0-2.208-.456l-1.746.7v3h10.8v-3l-1.746-.7a2.056 2.056 0 0 0-2.208.456z" class="cls-1" transform="translate(-5.76 -13.599)"/>
    <g id="Group_707" transform="translate(-5.76 -13.599)">
        <path id="Path_1570" d="M36.359 39.147a2.4 2.4 0 0 1 .6-3.642v-.33h1.2v-1.2h-2.4v1.53a2.4 2.4 0 0 0-.6 3.642v1.425h2.625a1.434 1.434 0 0 1-1.425-1.425z" class="cls-1"/>
        <path id="Path_1571" d="M38.159 32.775h-1.092a1.828 1.828 0 0 0-.108.6v.6h1.2a2.4 2.4 0 0 0 2.4-2.4h-.33a2.4 2.4 0 0 1-2.07 1.2z" class="cls-1"/>
        <path id="Path_1572" d="M35.759 32.775a2.4 2.4 0 0 1-2.07-1.2h-.33a2.4 2.4 0 0 0 2.4 2.4h1.2v-.6a1.778 1.778 0 0 0-.108-.6z" class="cls-1"/>
        <path id="Path_1573" d="M37.385 31.3l-.852-.852a2.4 2.4 0 0 1-.66-2.118 2.4 2.4 0 0 0 .06 3.318l.852.852.42-.426a1.8 1.8 0 0 0 .516-1.1z" class="cls-1"/>
        <path id="Path_1574" d="M29.159 37.575v-1.2h-1.2v4.2h3v-1.2a1.8 1.8 0 0 1-1.8-1.8z" class="cls-1"/>
    </g>
    <path id="Path_1575" d="M41.759 41.775a1.8 1.8 0 0 0-1.8-1.8h-.6v-.6a2.947 2.947 0 0 0 .6-1.8 3 3 0 0 0-1.2-2.4v-.66a3 3 0 0 0 2.4-2.94.6.6 0 0 0-.6-.6h-1.8a2.211 2.211 0 0 0-.444.048V30.8a2.4 2.4 0 0 0-.7-1.7l-1.254-1.275a.6.6 0 0 0-.846 0 2.943 2.943 0 0 0-.69 3.144h-1.466a.6.6 0 0 0-.6.6 3 3 0 0 0 2.4 2.94v.66a3 3 0 0 0-1.2 2.4 2.962 2.962 0 0 0 .6 1.8v.6h-3v-3.6a.6.6 0 0 0-.6-.6h-4.2a1.8 1.8 0 1 0 0 3.6h.6v.6h-.6a1.8 1.8 0 1 0 0 3.6h1l-1.6 5.232a.6.6 0 1 0 1.152.348L29 43.575h8.712l1.644 5.574a.625.625 0 0 0 1.2-.348l-1.6-5.226h1a1.8 1.8 0 0 0 1.8-1.8zm-1.9-9.6a1.8 1.8 0 0 1-1.7 1.2h-.6a1.2 1.2 0 0 1 1.2-1.2zm-3.852-3l.78.774a1.2 1.2 0 0 1 .012 1.68l-.18-.144-.258-.26a1.8 1.8 0 0 1-.354-2.046zm-1.944 3h1.1a1.192 1.192 0 0 1 .648.192l.36.36a1.192 1.192 0 0 1 .192.648h-.6a1.8 1.8 0 0 1-1.702-1.2zm1.548 6.6a1.8 1.8 0 0 1 .191-2.539 1.878 1.878 0 0 1 .259-.185.6.6 0 0 0 .3-.525v-.951h1.2v.93a.6.6 0 0 0 .3.525 1.8 1.8 0 0 1 .45 2.748.605.605 0 0 0-.15.4v.8h-2.4v-.825a.592.592 0 0 0-.152-.378zm-8.85-.6a.6.6 0 1 1 0-1.2h.6v1.2zm1.8-1.2h1.8v3h-1.8zm-2.4 4.8a.6.6 0 0 1 .6-.6h13.2a.6.6 0 1 1 0 1.2h-13.2a.6.6 0 0 1-.6-.6z" class="cls-2" transform="translate(-5.76 -13.599)"/>
    <path id="Path_1576" d="M18.857 38.775h-1.1v-1.8a3 3 0 0 0-3-3h-3.6a.6.6 0 0 1-.6-.6v-1.7a2.46 2.46 0 0 0-2.274-2.5 2.373 2.373 0 0 0-2.522 2.216c0 .062-.005.124 0 .186v9a3 3 0 0 0 2.286 2.9L6.96 48.855a.6.6 0 0 0 .479.709.7.7 0 0 0 .121.011h1.2a.6.6 0 0 0 .558-.375l2.25-5.625h3.984L17.8 49.2a.6.6 0 0 0 .558.375h1.2a.624.624 0 0 0 .608-.637.569.569 0 0 0-.008-.083l-1.068-5.28a2.4 2.4 0 0 0 2.268-2.525 2.458 2.458 0 0 0-2.501-2.275zm-10.505 9.6h-.06l.96-4.8h1.02zm10.415 0l-1.92-4.8h1.02l.96 4.8zM19.829 42a1.2 1.2 0 0 1-.87.375H8.76a1.8 1.8 0 0 1-1.8-1.8v-9a1.2 1.2 0 0 1 1.2-1.2h.066a1.276 1.276 0 0 1 1.134 1.3v1.7a1.8 1.8 0 0 0 1.8 1.8h3.6a1.8 1.8 0 0 1 1.8 1.8v4.2a.6.6 0 0 0 1.2 0v-1.2h1.1a1.274 1.274 0 0 1 1.3 1.136 1.2 1.2 0 0 1-.33.894z" class="cls-2" transform="translate(-5.76 -13.599)"/>
    <path id="Path_1577" d="M23.759 23.175a1.8 1.8 0 1 0-1.8-1.8 1.8 1.8 0 0 0 1.8 1.8zm0-2.4a.6.6 0 1 1-.6.6.6.6 0 0 1 .6-.6z" class="cls-2" transform="translate(-5.76 -13.599)"/>
    <path id="Path_1578" d="M17.759 25.6v3a.6.6 0 0 0 .6.6h10.8a.6.6 0 0 0 .6-.6V17.8a.6.6 0 0 0-.6-.6h-2.118l-2.82-3.383a.6.6 0 0 0-.924 0l-2.82 3.383h-2.118a.6.6 0 0 0-.6.6zm1.2 2.4v-1.991l1.374-.553a1.442 1.442 0 0 1 1.554.324 2.649 2.649 0 0 0 3.744 0 1.449 1.449 0 0 1 1.56-.324l1.368.553V28zm4.8-12.863l1.725 2.063h-3.45zm4.8 3.263v6.312l-.924-.366a2.64 2.64 0 0 0-2.856.6 1.441 1.441 0 0 1-2.038 0 2.638 2.638 0 0 0-2.856-.6l-.924.366V18.4z" class="cls-2" transform="translate(-5.76 -13.599)"/>
    <path id="Rectangle_140100" fill="none" d="M0 0H36V36H0z" transform="translate(0 .001)"/>
</svg>
