<svg xmlns="http://www.w3.org/2000/svg" width="120" height="120" viewBox="0 0 120 120">
    <defs>
        <style>
            .cls-2{fill:#f7e5e5}.cls-3{fill:#eb0000}
        </style>
    </defs>
    <g id="Group_10004" transform="translate(-1334 -2066)">
        <path id="Rectangle_145100" fill="none" d="M0 0H120V120H0z" transform="translate(1334 2066)"/>
        <g id="Group_10002" transform="translate(1338.5 2086.502)">
            <g id="Group_9991" transform="translate(44.509 16.029)">
                <path id="Path_8777" d="M1404.215 2150.477a28.993 28.993 0 1 1 6.705-57.2 31.074 31.074 0 1 0-.524 56.533 29.124 29.124 0 0 1-6.181.667z" class="cls-2" transform="translate(-1366.673 -2090.354)"/>
            </g>
            <g id="Group_9995" transform="translate(56.886 40.497)">
                <g id="Group_9992">
                    <path id="Path_8778" d="M1376.524 2119.041q-1.6-1.708-1.6-5.292 0-3.69 1.59-5.385a7.855 7.855 0 0 1 9.756 0q1.589 1.694 1.59 5.385 0 3.584-1.6 5.292a7.793 7.793 0 0 1-9.735 0zm8.027-1.433a5.985 5.985 0 0 0 1-3.859 6.148 6.148 0 0 0-.986-3.943 4.86 4.86 0 0 0-6.319 0 6.137 6.137 0 0 0-.987 3.943 5.98 5.98 0 0 0 1 3.849 3.851 3.851 0 0 0 3.138 1.2 3.9 3.9 0 0 0 3.154-1.19z" class="cls-3" transform="translate(-1374.924 -2106.666)"/>
                </g>
                <g id="Group_9993" transform="translate(13.212 .213)">
                    <path id="Path_8779" d="M1388.1 2108.61h-4.368v-1.8h11.026v1.8h-4.347v11.854h-2.311z" class="cls-3" transform="translate(-1383.732 -2106.808)"/>
                </g>
                <g id="Group_9994" transform="translate(26.084 .213)">
                    <path id="Path_8780" d="M1392.313 2106.808h6.085a4.437 4.437 0 0 1 3.426 1.251 4.684 4.684 0 0 1 1.155 3.307 4.354 4.354 0 0 1-1.261 3.267 4.671 4.671 0 0 1-3.4 1.23h-3.69v4.6h-2.312zm5.577 7.231a2.8 2.8 0 0 0 2.057-.711 2.627 2.627 0 0 0 .722-1.962 2.861 2.861 0 0 0-.678-2.036 2.612 2.612 0 0 0-1.993-.721h-3.372v5.43z" class="cls-3" transform="translate(-1392.313 -2106.808)"/>
                </g>
            </g>
            <g id="Group_9996" transform="translate(42.729 14.249)">
                <path id="Path_8781" d="M1432.257 2155.938l-17.75-5.31a32.838 32.838 0 1 1 12.439-12.438zm-33.917-63.21a29.294 29.294 0 1 0 15.024 54.444l.674-.4 12.914 3.864-3.864-12.914.4-.673a29.3 29.3 0 0 0-25.15-44.317z" class="cls-3" transform="translate(-1365.486 -2089.167)"/>
            </g>
            <g id="Group_9997" transform="translate(2.652 1.781)">
                <path id="Path_8782" d="M1347.5 2114.423a31.091 31.091 0 0 1 35.442-30.768 31.084 31.084 0 0 0-39.585 44.211l-4.587 15.327 15.327-4.587a30.966 30.966 0 0 0 11.58 4.094 31.079 31.079 0 0 1-18.177-28.277z" class="cls-2" transform="translate(-1338.768 -2080.855)"/>
            </g>
            <g id="Group_9998">
                <path id="Path_8783" d="M1337 2146.439l5.312-17.749a32.857 32.857 0 0 1 52.656-38.552l-2.607 2.427a29.008 29.008 0 0 0-21.441-9.336 29.3 29.3 0 0 0-25.152 44.316l.4.673-3.864 12.915 12.914-3.864.672.4a29.285 29.285 0 0 0 19.772 3.762l.576 3.516a32.885 32.885 0 0 1-21.488-3.82z" class="cls-3" transform="translate(-1337 -2079.668)"/>
            </g>
            <g id="Group_9999" transform="translate(17.108 20.653)">
                <path id="Rectangle_145101" d="M0 0H26.894V3.562H0z" class="cls-3"/>
            </g>
            <g id="Group_10000" transform="translate(17.108 31.339)">
                <path id="Rectangle_145102" d="M0 0H19.77V3.562H0z" class="cls-3"/>
            </g>
            <g id="Group_10001" transform="translate(17.108 42.026)">
                <path id="Rectangle_145103" d="M0 0H14.427V3.562H0z" class="cls-3"/>
            </g>
        </g>
        <g id="Group_10003" transform="translate(1346.188 2073.5)">
            <path id="Path_8784" d="M1402 2071a6 6 0 1 0 6 6 6.006 6.006 0 0 0-6-6zm0 9a3 3 0 1 1 3-3 3 3 0 0 1-3 3z" class="cls-3" transform="translate(-1315.188 -2071)"/>
            <path id="Path_8785" d="M1354.188 2137.125a2.063 2.063 0 1 0 2.063 2.063 2.065 2.065 0 0 0-2.063-2.063zm0 3a.938.938 0 1 1 .938-.937.938.938 0 0 1-.938.937z" class="cls-3" transform="translate(-1337.125 -2037.938)"/>
            <path id="Path_8786" d="M1389.875 2080.25h-3.375v-3.375a1.125 1.125 0 0 0-2.25 0v3.375h-3.375a1.125 1.125 0 0 0 0 2.25h3.375v3.375a1.125 1.125 0 0 0 2.25 0v-3.375h3.375a1.125 1.125 0 0 0 0-2.25z" class="cls-3" transform="translate(-1323.313 -2068.625)"/>
            <path id="Path_8787" d="M1377.5 2135h-4.5v-4.5a1.5 1.5 0 0 0-3 0v4.5h-4.5a1.5 1.5 0 0 0 0 3h4.5v4.5a1.5 1.5 0 0 0 3 0v-4.5h4.5a1.5 1.5 0 0 0 0-3z" class="cls-3" transform="translate(-1331.188 -2042)"/>
            <path id="Path_8788" d="M1347.188 2078.875h-1.688v-1.687a.563.563 0 0 0-1.125 0v1.688h-1.687a.563.563 0 0 0 0 1.125h1.688v1.688a.563.563 0 0 0 1.125 0V2080h1.688a.563.563 0 0 0 0-1.125z" class="cls-3" transform="translate(-1342.125 -2068.188)"/>
        </g>
    </g>
</svg>
